<mxfile host="app.diagrams.net" agent="Mozilla/5.0 (Windows NT 10.0; Win64; x64) AppleWebKit/537.36 (KHTML, like Gecko) Chrome/141.0.0.0 Safari/537.36" version="28.2.5">
  <diagram name="Halaman-1" id="EjC-X2PoHcwY-9un_uI2">
    <mxGraphModel dx="4518" dy="1293" grid="0" gridSize="10" guides="1" tooltips="1" connect="1" arrows="1" fold="1" page="1" pageScale="1" pageWidth="1169" pageHeight="827" background="light-dark(#FFFFFF,#000000)" math="0" shadow="0">
      <root>
        <mxCell id="0" />
        <mxCell id="1" parent="0" />
        <mxCell id="nVCKISFoR82PQB6_oY3b-102" style="edgeStyle=orthogonalEdgeStyle;rounded=0;orthogonalLoop=1;jettySize=auto;html=1;exitX=0.5;exitY=1;exitDx=0;exitDy=0;exitPerimeter=0;entryX=0.5;entryY=0;entryDx=0;entryDy=0;" parent="1" source="c0lGMGclZq9IwRjVhmtw-55" target="nVCKISFoR82PQB6_oY3b-101" edge="1">
          <mxGeometry relative="1" as="geometry" />
        </mxCell>
        <mxCell id="c0lGMGclZq9IwRjVhmtw-55" value="Start" style="strokeWidth=2;html=1;shape=mxgraph.flowchart.terminator;whiteSpace=wrap;" parent="1" vertex="1">
          <mxGeometry x="-1034" y="274.4" width="123" height="54" as="geometry" />
        </mxCell>
        <mxCell id="c0lGMGclZq9IwRjVhmtw-63" style="edgeStyle=elbowEdgeStyle;rounded=0;orthogonalLoop=1;jettySize=auto;elbow=vertical;html=1;" parent="1" source="c0lGMGclZq9IwRjVhmtw-56" target="c0lGMGclZq9IwRjVhmtw-65" edge="1">
          <mxGeometry relative="1" as="geometry">
            <mxPoint x="-887" y="589.4" as="targetPoint" />
          </mxGeometry>
        </mxCell>
        <mxCell id="c0lGMGclZq9IwRjVhmtw-64" value="Ya" style="edgeLabel;html=1;align=center;verticalAlign=middle;resizable=0;points=[];" parent="c0lGMGclZq9IwRjVhmtw-63" vertex="1" connectable="0">
          <mxGeometry x="-0.465" y="2" relative="1" as="geometry">
            <mxPoint x="-2" as="offset" />
          </mxGeometry>
        </mxCell>
        <mxCell id="c0lGMGclZq9IwRjVhmtw-56" value="kredensial&lt;div&gt;benar?&lt;/div&gt;" style="strokeWidth=2;html=1;shape=mxgraph.flowchart.decision;whiteSpace=wrap;" parent="1" vertex="1">
          <mxGeometry x="-1022.5" y="474.4" width="100" height="100" as="geometry" />
        </mxCell>
        <mxCell id="c0lGMGclZq9IwRjVhmtw-60" style="edgeStyle=elbowEdgeStyle;rounded=0;orthogonalLoop=1;jettySize=auto;elbow=vertical;html=1;exitX=1;exitY=0.5;exitDx=0;exitDy=0;exitPerimeter=0;entryX=1;entryY=0.5;entryDx=0;entryDy=0;" parent="1" source="c0lGMGclZq9IwRjVhmtw-56" target="nVCKISFoR82PQB6_oY3b-101" edge="1">
          <mxGeometry relative="1" as="geometry">
            <Array as="points">
              <mxPoint x="-872" y="485.4" />
            </Array>
            <mxPoint x="-911" y="449.4" as="targetPoint" />
          </mxGeometry>
        </mxCell>
        <mxCell id="c0lGMGclZq9IwRjVhmtw-61" value="Tidak" style="edgeLabel;html=1;align=center;verticalAlign=middle;resizable=0;points=[];" parent="c0lGMGclZq9IwRjVhmtw-60" vertex="1" connectable="0">
          <mxGeometry x="-0.8485" relative="1" as="geometry">
            <mxPoint x="9" as="offset" />
          </mxGeometry>
        </mxCell>
        <mxCell id="lZ6KA6rG7Rb4LMSSJKNj-7" style="edgeStyle=orthogonalEdgeStyle;rounded=0;orthogonalLoop=1;jettySize=auto;html=1;exitX=0.5;exitY=1;exitDx=0;exitDy=0;exitPerimeter=0;entryX=0.5;entryY=0;entryDx=0;entryDy=0;" parent="1" source="c0lGMGclZq9IwRjVhmtw-62" target="lZ6KA6rG7Rb4LMSSJKNj-5" edge="1">
          <mxGeometry relative="1" as="geometry" />
        </mxCell>
        <mxCell id="c0lGMGclZq9IwRjVhmtw-62" value="Halaman utama" style="strokeWidth=2;html=1;shape=mxgraph.flowchart.display;whiteSpace=wrap;" parent="1" vertex="1">
          <mxGeometry x="-666" y="128" width="113.5" height="60" as="geometry" />
        </mxCell>
        <mxCell id="c0lGMGclZq9IwRjVhmtw-71" style="edgeStyle=orthogonalEdgeStyle;rounded=0;orthogonalLoop=1;jettySize=auto;html=1;entryX=1;entryY=0.5;entryDx=0;entryDy=0;entryPerimeter=0;exitX=0.5;exitY=1;exitDx=0;exitDy=0;exitPerimeter=0;" parent="1" source="c0lGMGclZq9IwRjVhmtw-65" target="c0lGMGclZq9IwRjVhmtw-77" edge="1">
          <mxGeometry relative="1" as="geometry">
            <mxPoint x="-974.5000000000001" y="522" as="targetPoint" />
            <Array as="points">
              <mxPoint x="-974" y="790" />
              <mxPoint x="-1166" y="790" />
              <mxPoint x="-1166" y="147" />
            </Array>
          </mxGeometry>
        </mxCell>
        <mxCell id="c0lGMGclZq9IwRjVhmtw-72" value="Ya" style="edgeLabel;html=1;align=center;verticalAlign=middle;resizable=0;points=[];" parent="c0lGMGclZq9IwRjVhmtw-71" vertex="1" connectable="0">
          <mxGeometry x="-0.5701" relative="1" as="geometry">
            <mxPoint x="192" y="32" as="offset" />
          </mxGeometry>
        </mxCell>
        <mxCell id="c0lGMGclZq9IwRjVhmtw-65" value="Admin?" style="strokeWidth=2;html=1;shape=mxgraph.flowchart.decision;whiteSpace=wrap;" parent="1" vertex="1">
          <mxGeometry x="-1022.5" y="621.4" width="100" height="100" as="geometry" />
        </mxCell>
        <mxCell id="c0lGMGclZq9IwRjVhmtw-73" style="edgeStyle=orthogonalEdgeStyle;rounded=0;orthogonalLoop=1;jettySize=auto;html=1;entryX=0;entryY=0.5;entryDx=0;entryDy=0;entryPerimeter=0;exitX=1;exitY=0.5;exitDx=0;exitDy=0;exitPerimeter=0;" parent="1" source="c0lGMGclZq9IwRjVhmtw-65" target="c0lGMGclZq9IwRjVhmtw-62" edge="1">
          <mxGeometry relative="1" as="geometry">
            <mxPoint x="-848" y="419" as="targetPoint" />
          </mxGeometry>
        </mxCell>
        <mxCell id="c0lGMGclZq9IwRjVhmtw-74" value="Tidak" style="edgeLabel;html=1;align=center;verticalAlign=middle;resizable=0;points=[];" parent="c0lGMGclZq9IwRjVhmtw-73" vertex="1" connectable="0">
          <mxGeometry x="-0.3929" y="-1" relative="1" as="geometry">
            <mxPoint x="-108" y="106" as="offset" />
          </mxGeometry>
        </mxCell>
        <mxCell id="c0lGMGclZq9IwRjVhmtw-77" value="Dashboard admin" style="strokeWidth=2;html=1;shape=mxgraph.flowchart.display;whiteSpace=wrap;" parent="1" vertex="1">
          <mxGeometry x="-1907.19" y="117" width="113.5" height="60" as="geometry" />
        </mxCell>
        <mxCell id="nVCKISFoR82PQB6_oY3b-4" style="edgeStyle=orthogonalEdgeStyle;rounded=0;orthogonalLoop=1;jettySize=auto;html=1;" parent="1" source="c0lGMGclZq9IwRjVhmtw-82" target="nVCKISFoR82PQB6_oY3b-3" edge="1">
          <mxGeometry relative="1" as="geometry" />
        </mxCell>
        <mxCell id="c0lGMGclZq9IwRjVhmtw-82" value="Pesan kamar" style="rounded=1;whiteSpace=wrap;html=1;absoluteArcSize=1;arcSize=14;strokeWidth=2;" parent="1" vertex="1">
          <mxGeometry x="-658.5" y="419" width="100" height="55" as="geometry" />
        </mxCell>
        <mxCell id="nVCKISFoR82PQB6_oY3b-3" value="Detail pesanan" style="strokeWidth=2;html=1;shape=mxgraph.flowchart.display;whiteSpace=wrap;" parent="1" vertex="1">
          <mxGeometry x="-665.25" y="522" width="113.5" height="60" as="geometry" />
        </mxCell>
        <mxCell id="nVCKISFoR82PQB6_oY3b-13" style="edgeStyle=orthogonalEdgeStyle;rounded=0;orthogonalLoop=1;jettySize=auto;html=1;exitX=0.5;exitY=1;exitDx=0;exitDy=0;exitPerimeter=0;" parent="1" source="nVCKISFoR82PQB6_oY3b-5" target="nVCKISFoR82PQB6_oY3b-7" edge="1">
          <mxGeometry relative="1" as="geometry" />
        </mxCell>
        <mxCell id="nVCKISFoR82PQB6_oY3b-14" value="Ya" style="edgeLabel;html=1;align=center;verticalAlign=middle;resizable=0;points=[];" parent="nVCKISFoR82PQB6_oY3b-13" vertex="1" connectable="0">
          <mxGeometry x="-0.6498" y="-1" relative="1" as="geometry">
            <mxPoint x="1" y="6" as="offset" />
          </mxGeometry>
        </mxCell>
        <mxCell id="nVCKISFoR82PQB6_oY3b-5" value="Lihat riwayat&lt;div&gt;pesanan?&lt;/div&gt;" style="strokeWidth=2;html=1;shape=mxgraph.flowchart.decision;whiteSpace=wrap;" parent="1" vertex="1">
          <mxGeometry x="-658.5" y="619" width="100" height="100" as="geometry" />
        </mxCell>
        <mxCell id="nVCKISFoR82PQB6_oY3b-6" style="edgeStyle=orthogonalEdgeStyle;rounded=0;orthogonalLoop=1;jettySize=auto;html=1;entryX=0.5;entryY=0;entryDx=0;entryDy=0;entryPerimeter=0;" parent="1" source="nVCKISFoR82PQB6_oY3b-3" target="nVCKISFoR82PQB6_oY3b-5" edge="1">
          <mxGeometry relative="1" as="geometry" />
        </mxCell>
        <mxCell id="nVCKISFoR82PQB6_oY3b-7" value="Halaman riwayat&lt;div&gt;pesanan&lt;/div&gt;" style="strokeWidth=2;html=1;shape=mxgraph.flowchart.display;whiteSpace=wrap;" parent="1" vertex="1">
          <mxGeometry x="-666" y="767" width="113.5" height="60" as="geometry" />
        </mxCell>
        <mxCell id="nVCKISFoR82PQB6_oY3b-11" style="edgeStyle=orthogonalEdgeStyle;rounded=0;orthogonalLoop=1;jettySize=auto;html=1;exitX=1;exitY=0.5;exitDx=0;exitDy=0;exitPerimeter=0;entryX=1;entryY=0.5;entryDx=0;entryDy=0;entryPerimeter=0;" parent="1" source="nVCKISFoR82PQB6_oY3b-5" target="c0lGMGclZq9IwRjVhmtw-62" edge="1">
          <mxGeometry relative="1" as="geometry">
            <Array as="points">
              <mxPoint x="-509" y="669" />
              <mxPoint x="-509" y="158" />
            </Array>
          </mxGeometry>
        </mxCell>
        <mxCell id="nVCKISFoR82PQB6_oY3b-12" value="Tidak" style="edgeLabel;html=1;align=center;verticalAlign=middle;resizable=0;points=[];" parent="nVCKISFoR82PQB6_oY3b-11" vertex="1" connectable="0">
          <mxGeometry x="-0.9343" relative="1" as="geometry">
            <mxPoint x="8" as="offset" />
          </mxGeometry>
        </mxCell>
        <mxCell id="nVCKISFoR82PQB6_oY3b-15" value="Cetak struk?" style="strokeWidth=2;html=1;shape=mxgraph.flowchart.decision;whiteSpace=wrap;" parent="1" vertex="1">
          <mxGeometry x="-659.25" y="886" width="100" height="100" as="geometry" />
        </mxCell>
        <mxCell id="nVCKISFoR82PQB6_oY3b-16" style="edgeStyle=orthogonalEdgeStyle;rounded=0;orthogonalLoop=1;jettySize=auto;html=1;exitX=0.5;exitY=1;exitDx=0;exitDy=0;exitPerimeter=0;entryX=0.5;entryY=0;entryDx=0;entryDy=0;entryPerimeter=0;" parent="1" source="nVCKISFoR82PQB6_oY3b-7" target="nVCKISFoR82PQB6_oY3b-15" edge="1">
          <mxGeometry relative="1" as="geometry" />
        </mxCell>
        <mxCell id="nVCKISFoR82PQB6_oY3b-17" style="edgeStyle=orthogonalEdgeStyle;rounded=0;orthogonalLoop=1;jettySize=auto;html=1;exitX=1;exitY=0.5;exitDx=0;exitDy=0;exitPerimeter=0;entryX=1;entryY=0.5;entryDx=0;entryDy=0;entryPerimeter=0;" parent="1" source="nVCKISFoR82PQB6_oY3b-15" target="nVCKISFoR82PQB6_oY3b-7" edge="1">
          <mxGeometry relative="1" as="geometry">
            <Array as="points">
              <mxPoint x="-502" y="936" />
              <mxPoint x="-502" y="797" />
            </Array>
          </mxGeometry>
        </mxCell>
        <mxCell id="nVCKISFoR82PQB6_oY3b-18" value="Tidak" style="edgeLabel;html=1;align=center;verticalAlign=middle;resizable=0;points=[];" parent="nVCKISFoR82PQB6_oY3b-17" vertex="1" connectable="0">
          <mxGeometry x="-0.8554" y="-1" relative="1" as="geometry">
            <mxPoint x="7" y="-1" as="offset" />
          </mxGeometry>
        </mxCell>
        <mxCell id="nVCKISFoR82PQB6_oY3b-19" value="Struk pemesanan" style="strokeWidth=2;html=1;shape=mxgraph.flowchart.display;whiteSpace=wrap;" parent="1" vertex="1">
          <mxGeometry x="-972" y="906" width="113.5" height="60" as="geometry" />
        </mxCell>
        <mxCell id="nVCKISFoR82PQB6_oY3b-20" style="edgeStyle=orthogonalEdgeStyle;rounded=0;orthogonalLoop=1;jettySize=auto;html=1;exitX=0;exitY=0.5;exitDx=0;exitDy=0;exitPerimeter=0;entryX=1;entryY=0.5;entryDx=0;entryDy=0;entryPerimeter=0;" parent="1" source="nVCKISFoR82PQB6_oY3b-15" target="nVCKISFoR82PQB6_oY3b-19" edge="1">
          <mxGeometry relative="1" as="geometry" />
        </mxCell>
        <mxCell id="nVCKISFoR82PQB6_oY3b-21" value="Ya" style="edgeLabel;html=1;align=center;verticalAlign=middle;resizable=0;points=[];" parent="nVCKISFoR82PQB6_oY3b-20" vertex="1" connectable="0">
          <mxGeometry x="-0.2765" relative="1" as="geometry">
            <mxPoint as="offset" />
          </mxGeometry>
        </mxCell>
        <mxCell id="lZ6KA6rG7Rb4LMSSJKNj-14" style="edgeStyle=orthogonalEdgeStyle;rounded=0;orthogonalLoop=1;jettySize=auto;html=1;exitX=0.5;exitY=0;exitDx=0;exitDy=0;exitPerimeter=0;entryX=0.5;entryY=0;entryDx=0;entryDy=0;" parent="1" source="nVCKISFoR82PQB6_oY3b-22" target="nVCKISFoR82PQB6_oY3b-153" edge="1">
          <mxGeometry relative="1" as="geometry" />
        </mxCell>
        <mxCell id="lZ6KA6rG7Rb4LMSSJKNj-15" value="Cek kode booking" style="edgeLabel;html=1;align=center;verticalAlign=middle;resizable=0;points=[];" parent="lZ6KA6rG7Rb4LMSSJKNj-14" vertex="1" connectable="0">
          <mxGeometry x="-0.0627" relative="1" as="geometry">
            <mxPoint as="offset" />
          </mxGeometry>
        </mxCell>
        <mxCell id="nVCKISFoR82PQB6_oY3b-22" value="Menu yang&lt;div&gt;dipilih?&lt;/div&gt;" style="strokeWidth=2;html=1;shape=mxgraph.flowchart.decision;whiteSpace=wrap;" parent="1" vertex="1">
          <mxGeometry x="-1900.44" y="210" width="100" height="100" as="geometry" />
        </mxCell>
        <mxCell id="nVCKISFoR82PQB6_oY3b-23" style="edgeStyle=orthogonalEdgeStyle;rounded=0;orthogonalLoop=1;jettySize=auto;html=1;exitX=0.5;exitY=1;exitDx=0;exitDy=0;exitPerimeter=0;entryX=0.5;entryY=0;entryDx=0;entryDy=0;entryPerimeter=0;" parent="1" source="c0lGMGclZq9IwRjVhmtw-77" target="nVCKISFoR82PQB6_oY3b-22" edge="1">
          <mxGeometry relative="1" as="geometry" />
        </mxCell>
        <mxCell id="nVCKISFoR82PQB6_oY3b-33" style="edgeStyle=orthogonalEdgeStyle;rounded=0;orthogonalLoop=1;jettySize=auto;html=1;exitX=0.5;exitY=1;exitDx=0;exitDy=0;exitPerimeter=0;entryX=0.5;entryY=0;entryDx=0;entryDy=0;" parent="1" source="nVCKISFoR82PQB6_oY3b-27" target="nVCKISFoR82PQB6_oY3b-32" edge="1">
          <mxGeometry relative="1" as="geometry" />
        </mxCell>
        <mxCell id="nVCKISFoR82PQB6_oY3b-34" value="Tambah" style="edgeLabel;html=1;align=center;verticalAlign=middle;resizable=0;points=[];" parent="nVCKISFoR82PQB6_oY3b-33" vertex="1" connectable="0">
          <mxGeometry x="-0.3439" y="-1" relative="1" as="geometry">
            <mxPoint as="offset" />
          </mxGeometry>
        </mxCell>
        <mxCell id="nVCKISFoR82PQB6_oY3b-60" style="edgeStyle=orthogonalEdgeStyle;rounded=0;orthogonalLoop=1;jettySize=auto;html=1;exitX=1;exitY=0.5;exitDx=0;exitDy=0;exitPerimeter=0;entryX=1;entryY=0.5;entryDx=0;entryDy=0;" parent="1" source="nVCKISFoR82PQB6_oY3b-27" target="nVCKISFoR82PQB6_oY3b-52" edge="1">
          <mxGeometry relative="1" as="geometry">
            <mxPoint x="-1799.31" y="526.5" as="sourcePoint" />
            <Array as="points">
              <mxPoint x="-1768.06" y="505.5" />
              <mxPoint x="-1768.06" y="880.5" />
            </Array>
          </mxGeometry>
        </mxCell>
        <mxCell id="nVCKISFoR82PQB6_oY3b-61" value="Edit kamar" style="edgeLabel;html=1;align=center;verticalAlign=middle;resizable=0;points=[];" parent="nVCKISFoR82PQB6_oY3b-60" vertex="1" connectable="0">
          <mxGeometry x="-0.7558" relative="1" as="geometry">
            <mxPoint as="offset" />
          </mxGeometry>
        </mxCell>
        <mxCell id="nVCKISFoR82PQB6_oY3b-62" style="edgeStyle=orthogonalEdgeStyle;rounded=0;orthogonalLoop=1;jettySize=auto;html=1;exitX=0;exitY=0.5;exitDx=0;exitDy=0;exitPerimeter=0;entryX=1;entryY=0.5;entryDx=0;entryDy=0;" parent="1" source="nVCKISFoR82PQB6_oY3b-27" target="nVCKISFoR82PQB6_oY3b-53" edge="1">
          <mxGeometry relative="1" as="geometry">
            <mxPoint x="-1899.31" y="526.5" as="sourcePoint" />
            <Array as="points">
              <mxPoint x="-1932.06" y="505.5" />
              <mxPoint x="-1932.06" y="457.5" />
              <mxPoint x="-1726.0600000000002" y="457.5" />
              <mxPoint x="-1726.0600000000002" y="975.5" />
            </Array>
          </mxGeometry>
        </mxCell>
        <mxCell id="nVCKISFoR82PQB6_oY3b-63" value="Hapus kamar" style="edgeLabel;html=1;align=center;verticalAlign=middle;resizable=0;points=[];" parent="nVCKISFoR82PQB6_oY3b-62" vertex="1" connectable="0">
          <mxGeometry x="-0.8674" relative="1" as="geometry">
            <mxPoint x="4" y="-9" as="offset" />
          </mxGeometry>
        </mxCell>
        <mxCell id="nVCKISFoR82PQB6_oY3b-27" value="Kelola kamar?" style="strokeWidth=2;html=1;shape=mxgraph.flowchart.decision;whiteSpace=wrap;" parent="1" vertex="1">
          <mxGeometry x="-1899.31" y="455.5" width="100" height="100" as="geometry" />
        </mxCell>
        <mxCell id="nVCKISFoR82PQB6_oY3b-50" style="edgeStyle=orthogonalEdgeStyle;rounded=0;orthogonalLoop=1;jettySize=auto;html=1;exitX=0.5;exitY=1;exitDx=0;exitDy=0;entryX=0.5;entryY=0;entryDx=0;entryDy=0;" parent="1" source="nVCKISFoR82PQB6_oY3b-32" target="nVCKISFoR82PQB6_oY3b-49" edge="1">
          <mxGeometry relative="1" as="geometry" />
        </mxCell>
        <mxCell id="nVCKISFoR82PQB6_oY3b-32" value="Input&lt;div&gt;informasi&lt;/div&gt;&lt;div&gt;kamar&lt;/div&gt;" style="shape=parallelogram;html=1;strokeWidth=2;perimeter=parallelogramPerimeter;whiteSpace=wrap;rounded=1;arcSize=12;size=0.23;" parent="1" vertex="1">
          <mxGeometry x="-1899.31" y="587.5" width="100" height="60" as="geometry" />
        </mxCell>
        <mxCell id="nVCKISFoR82PQB6_oY3b-36" style="edgeStyle=orthogonalEdgeStyle;rounded=0;orthogonalLoop=1;jettySize=auto;html=1;exitX=0.5;exitY=1;exitDx=0;exitDy=0;exitPerimeter=0;entryX=0.5;entryY=0;entryDx=0;entryDy=0;entryPerimeter=0;" parent="1" source="nVCKISFoR82PQB6_oY3b-22" target="nVCKISFoR82PQB6_oY3b-118" edge="1">
          <mxGeometry relative="1" as="geometry">
            <mxPoint x="-1850.4399999999998" y="353.0000000000002" as="targetPoint" />
          </mxGeometry>
        </mxCell>
        <mxCell id="nVCKISFoR82PQB6_oY3b-37" value="Daftar kamar" style="edgeLabel;html=1;align=center;verticalAlign=middle;resizable=0;points=[];" parent="nVCKISFoR82PQB6_oY3b-36" vertex="1" connectable="0">
          <mxGeometry x="-0.1183" relative="1" as="geometry">
            <mxPoint as="offset" />
          </mxGeometry>
        </mxCell>
        <mxCell id="nVCKISFoR82PQB6_oY3b-49" value="Menambah&lt;div&gt;kamar&lt;/div&gt;" style="rounded=1;whiteSpace=wrap;html=1;absoluteArcSize=1;arcSize=14;strokeWidth=2;" parent="1" vertex="1">
          <mxGeometry x="-1899.31" y="673.5" width="100" height="55" as="geometry" />
        </mxCell>
        <mxCell id="nVCKISFoR82PQB6_oY3b-52" value="Edit&lt;br&gt;&lt;div&gt;kamar&lt;/div&gt;" style="rounded=1;whiteSpace=wrap;html=1;absoluteArcSize=1;arcSize=14;strokeWidth=2;" parent="1" vertex="1">
          <mxGeometry x="-1899.31" y="852.5" width="100" height="55" as="geometry" />
        </mxCell>
        <mxCell id="nVCKISFoR82PQB6_oY3b-53" value="Menambah&lt;div&gt;kamar&lt;/div&gt;" style="rounded=1;whiteSpace=wrap;html=1;absoluteArcSize=1;arcSize=14;strokeWidth=2;" parent="1" vertex="1">
          <mxGeometry x="-1899.31" y="947.5" width="100" height="55" as="geometry" />
        </mxCell>
        <mxCell id="nVCKISFoR82PQB6_oY3b-65" style="edgeStyle=orthogonalEdgeStyle;rounded=0;orthogonalLoop=1;jettySize=auto;html=1;exitX=0.5;exitY=1;exitDx=0;exitDy=0;exitPerimeter=0;entryX=0.5;entryY=0;entryDx=0;entryDy=0;" parent="1" edge="1">
          <mxGeometry relative="1" as="geometry">
            <mxPoint x="-65.11999999999944" y="257" as="targetPoint" />
          </mxGeometry>
        </mxCell>
        <mxCell id="nVCKISFoR82PQB6_oY3b-108" style="edgeStyle=orthogonalEdgeStyle;rounded=0;orthogonalLoop=1;jettySize=auto;html=1;exitX=0.5;exitY=1;exitDx=0;exitDy=0;entryX=0.5;entryY=0;entryDx=0;entryDy=0;" parent="1" source="nVCKISFoR82PQB6_oY3b-76" target="nVCKISFoR82PQB6_oY3b-107" edge="1">
          <mxGeometry relative="1" as="geometry" />
        </mxCell>
        <mxCell id="nVCKISFoR82PQB6_oY3b-76" value="Setujui pesanan" style="rounded=1;whiteSpace=wrap;html=1;absoluteArcSize=1;arcSize=14;strokeWidth=2;" parent="1" vertex="1">
          <mxGeometry x="-2095.17" y="451" width="100" height="55" as="geometry" />
        </mxCell>
        <mxCell id="nVCKISFoR82PQB6_oY3b-101" value="Login" style="rounded=1;whiteSpace=wrap;html=1;absoluteArcSize=1;arcSize=14;strokeWidth=2;" parent="1" vertex="1">
          <mxGeometry x="-1022.5" y="376.4" width="100" height="55" as="geometry" />
        </mxCell>
        <mxCell id="nVCKISFoR82PQB6_oY3b-104" style="edgeStyle=orthogonalEdgeStyle;rounded=0;orthogonalLoop=1;jettySize=auto;html=1;exitX=0.5;exitY=1;exitDx=0;exitDy=0;entryX=0.5;entryY=0;entryDx=0;entryDy=0;entryPerimeter=0;" parent="1" source="nVCKISFoR82PQB6_oY3b-101" target="c0lGMGclZq9IwRjVhmtw-56" edge="1">
          <mxGeometry relative="1" as="geometry" />
        </mxCell>
        <mxCell id="nVCKISFoR82PQB6_oY3b-107" value="Setujui pembayaran" style="rounded=1;whiteSpace=wrap;html=1;absoluteArcSize=1;arcSize=14;strokeWidth=2;" parent="1" vertex="1">
          <mxGeometry x="-2095.17" y="546" width="100" height="55" as="geometry" />
        </mxCell>
        <mxCell id="nVCKISFoR82PQB6_oY3b-112" style="edgeStyle=orthogonalEdgeStyle;rounded=0;orthogonalLoop=1;jettySize=auto;html=1;exitX=0.5;exitY=1;exitDx=0;exitDy=0;exitPerimeter=0;entryX=0.5;entryY=0;entryDx=0;entryDy=0;" parent="1" source="nVCKISFoR82PQB6_oY3b-110" target="nVCKISFoR82PQB6_oY3b-76" edge="1">
          <mxGeometry relative="1" as="geometry" />
        </mxCell>
        <mxCell id="nVCKISFoR82PQB6_oY3b-110" value="&lt;div&gt;Daftar&lt;/div&gt;Semua pesanan" style="strokeWidth=2;html=1;shape=mxgraph.flowchart.display;whiteSpace=wrap;" parent="1" vertex="1">
          <mxGeometry x="-2101.92" y="357" width="113.5" height="60" as="geometry" />
        </mxCell>
        <mxCell id="nVCKISFoR82PQB6_oY3b-118" value="&lt;div&gt;Daftar&lt;/div&gt;Semua pesanan" style="strokeWidth=2;html=1;shape=mxgraph.flowchart.display;whiteSpace=wrap;" parent="1" vertex="1">
          <mxGeometry x="-1906.06" y="357" width="113.5" height="60" as="geometry" />
        </mxCell>
        <mxCell id="nVCKISFoR82PQB6_oY3b-119" style="edgeStyle=orthogonalEdgeStyle;rounded=0;orthogonalLoop=1;jettySize=auto;html=1;exitX=0;exitY=0.5;exitDx=0;exitDy=0;entryX=0;entryY=0.5;entryDx=0;entryDy=0;entryPerimeter=0;" parent="1" source="nVCKISFoR82PQB6_oY3b-107" target="nVCKISFoR82PQB6_oY3b-110" edge="1">
          <mxGeometry relative="1" as="geometry">
            <Array as="points">
              <mxPoint x="-2132.05" y="573.5" />
              <mxPoint x="-2132.05" y="386.5" />
            </Array>
          </mxGeometry>
        </mxCell>
        <mxCell id="nVCKISFoR82PQB6_oY3b-121" style="edgeStyle=orthogonalEdgeStyle;rounded=0;orthogonalLoop=1;jettySize=auto;html=1;exitX=0.5;exitY=1;exitDx=0;exitDy=0;exitPerimeter=0;entryX=0.5;entryY=0;entryDx=0;entryDy=0;entryPerimeter=0;" parent="1" source="nVCKISFoR82PQB6_oY3b-118" target="nVCKISFoR82PQB6_oY3b-27" edge="1">
          <mxGeometry relative="1" as="geometry" />
        </mxCell>
        <mxCell id="nVCKISFoR82PQB6_oY3b-123" value="Daftar&lt;div&gt;kamar&lt;/div&gt;" style="verticalLabelPosition=middle;verticalAlign=middle;html=1;shape=mxgraph.flowchart.on-page_reference;align=center;labelPosition=center;" parent="1" vertex="1">
          <mxGeometry x="-1879.31" y="750.5" width="60" height="60" as="geometry" />
        </mxCell>
        <mxCell id="nVCKISFoR82PQB6_oY3b-124" style="edgeStyle=orthogonalEdgeStyle;rounded=0;orthogonalLoop=1;jettySize=auto;html=1;exitX=0;exitY=0.5;exitDx=0;exitDy=0;entryX=0.5;entryY=1;entryDx=0;entryDy=0;entryPerimeter=0;" parent="1" source="nVCKISFoR82PQB6_oY3b-52" target="nVCKISFoR82PQB6_oY3b-123" edge="1">
          <mxGeometry relative="1" as="geometry" />
        </mxCell>
        <mxCell id="nVCKISFoR82PQB6_oY3b-125" style="edgeStyle=orthogonalEdgeStyle;rounded=0;orthogonalLoop=1;jettySize=auto;html=1;exitX=0;exitY=0.5;exitDx=0;exitDy=0;entryX=0;entryY=0.5;entryDx=0;entryDy=0;entryPerimeter=0;" parent="1" source="nVCKISFoR82PQB6_oY3b-53" target="nVCKISFoR82PQB6_oY3b-123" edge="1">
          <mxGeometry relative="1" as="geometry">
            <Array as="points">
              <mxPoint x="-1944.06" y="975.5" />
              <mxPoint x="-1944.06" y="780.5" />
            </Array>
          </mxGeometry>
        </mxCell>
        <mxCell id="nVCKISFoR82PQB6_oY3b-127" style="edgeStyle=orthogonalEdgeStyle;rounded=0;orthogonalLoop=1;jettySize=auto;html=1;exitX=0.5;exitY=1;exitDx=0;exitDy=0;exitPerimeter=0;entryX=0.5;entryY=0;entryDx=0;entryDy=0;" parent="1" source="nVCKISFoR82PQB6_oY3b-133" target="nVCKISFoR82PQB6_oY3b-135" edge="1">
          <mxGeometry relative="1" as="geometry" />
        </mxCell>
        <mxCell id="nVCKISFoR82PQB6_oY3b-128" value="Tambah" style="edgeLabel;html=1;align=center;verticalAlign=middle;resizable=0;points=[];" parent="nVCKISFoR82PQB6_oY3b-127" vertex="1" connectable="0">
          <mxGeometry x="-0.3439" y="-1" relative="1" as="geometry">
            <mxPoint as="offset" />
          </mxGeometry>
        </mxCell>
        <mxCell id="nVCKISFoR82PQB6_oY3b-129" style="edgeStyle=orthogonalEdgeStyle;rounded=0;orthogonalLoop=1;jettySize=auto;html=1;exitX=1;exitY=0.5;exitDx=0;exitDy=0;exitPerimeter=0;entryX=1;entryY=0.5;entryDx=0;entryDy=0;" parent="1" source="nVCKISFoR82PQB6_oY3b-133" target="nVCKISFoR82PQB6_oY3b-137" edge="1">
          <mxGeometry relative="1" as="geometry">
            <mxPoint x="-1541.2299999999998" y="526.5" as="sourcePoint" />
            <Array as="points">
              <mxPoint x="-1509.8700000000001" y="505.5" />
              <mxPoint x="-1509.8700000000001" y="880.5" />
            </Array>
          </mxGeometry>
        </mxCell>
        <mxCell id="nVCKISFoR82PQB6_oY3b-130" value="Edit user" style="edgeLabel;html=1;align=center;verticalAlign=middle;resizable=0;points=[];" parent="nVCKISFoR82PQB6_oY3b-129" vertex="1" connectable="0">
          <mxGeometry x="-0.7558" relative="1" as="geometry">
            <mxPoint as="offset" />
          </mxGeometry>
        </mxCell>
        <mxCell id="nVCKISFoR82PQB6_oY3b-131" style="edgeStyle=orthogonalEdgeStyle;rounded=0;orthogonalLoop=1;jettySize=auto;html=1;exitX=0;exitY=0.5;exitDx=0;exitDy=0;exitPerimeter=0;entryX=1;entryY=0.5;entryDx=0;entryDy=0;" parent="1" source="nVCKISFoR82PQB6_oY3b-133" target="nVCKISFoR82PQB6_oY3b-138" edge="1">
          <mxGeometry relative="1" as="geometry">
            <mxPoint x="-1641.2299999999998" y="526.5" as="sourcePoint" />
            <Array as="points">
              <mxPoint x="-1673.8700000000001" y="505.5" />
              <mxPoint x="-1673.8700000000001" y="457.5" />
              <mxPoint x="-1467.8700000000001" y="457.5" />
              <mxPoint x="-1467.8700000000001" y="975.5" />
              <mxPoint x="-1540.8700000000001" y="975.5" />
            </Array>
          </mxGeometry>
        </mxCell>
        <mxCell id="nVCKISFoR82PQB6_oY3b-132" value="Hapus user" style="edgeLabel;html=1;align=center;verticalAlign=middle;resizable=0;points=[];" parent="nVCKISFoR82PQB6_oY3b-131" vertex="1" connectable="0">
          <mxGeometry x="-0.8674" relative="1" as="geometry">
            <mxPoint x="4" y="-9" as="offset" />
          </mxGeometry>
        </mxCell>
        <mxCell id="nVCKISFoR82PQB6_oY3b-133" value="Kelola user?" style="strokeWidth=2;html=1;shape=mxgraph.flowchart.decision;whiteSpace=wrap;" parent="1" vertex="1">
          <mxGeometry x="-1641.2299999999998" y="455.5" width="100" height="100" as="geometry" />
        </mxCell>
        <mxCell id="nVCKISFoR82PQB6_oY3b-134" style="edgeStyle=orthogonalEdgeStyle;rounded=0;orthogonalLoop=1;jettySize=auto;html=1;exitX=0.5;exitY=1;exitDx=0;exitDy=0;entryX=0.5;entryY=0;entryDx=0;entryDy=0;" parent="1" source="nVCKISFoR82PQB6_oY3b-135" target="nVCKISFoR82PQB6_oY3b-136" edge="1">
          <mxGeometry relative="1" as="geometry" />
        </mxCell>
        <mxCell id="nVCKISFoR82PQB6_oY3b-135" value="Input&lt;div&gt;informasi&lt;/div&gt;&lt;div&gt;user&lt;/div&gt;" style="shape=parallelogram;html=1;strokeWidth=2;perimeter=parallelogramPerimeter;whiteSpace=wrap;rounded=1;arcSize=12;size=0.23;" parent="1" vertex="1">
          <mxGeometry x="-1641.2299999999998" y="587.5" width="100" height="60" as="geometry" />
        </mxCell>
        <mxCell id="nVCKISFoR82PQB6_oY3b-136" value="Menambah&lt;div&gt;user&lt;/div&gt;" style="rounded=1;whiteSpace=wrap;html=1;absoluteArcSize=1;arcSize=14;strokeWidth=2;" parent="1" vertex="1">
          <mxGeometry x="-1641.2299999999998" y="673.5" width="100" height="55" as="geometry" />
        </mxCell>
        <mxCell id="nVCKISFoR82PQB6_oY3b-137" value="Edit&lt;br&gt;&lt;div&gt;user&lt;/div&gt;" style="rounded=1;whiteSpace=wrap;html=1;absoluteArcSize=1;arcSize=14;strokeWidth=2;" parent="1" vertex="1">
          <mxGeometry x="-1641.2299999999998" y="852.5" width="100" height="55" as="geometry" />
        </mxCell>
        <mxCell id="nVCKISFoR82PQB6_oY3b-138" value="Menambah&lt;div&gt;user&lt;/div&gt;" style="rounded=1;whiteSpace=wrap;html=1;absoluteArcSize=1;arcSize=14;strokeWidth=2;" parent="1" vertex="1">
          <mxGeometry x="-1641.2299999999998" y="947.5" width="100" height="55" as="geometry" />
        </mxCell>
        <mxCell id="nVCKISFoR82PQB6_oY3b-139" value="&lt;div&gt;Daftar&lt;/div&gt;Semua user" style="strokeWidth=2;html=1;shape=mxgraph.flowchart.display;whiteSpace=wrap;" parent="1" vertex="1">
          <mxGeometry x="-1647.9799999999998" y="357" width="113.5" height="60" as="geometry" />
        </mxCell>
        <mxCell id="nVCKISFoR82PQB6_oY3b-140" style="edgeStyle=orthogonalEdgeStyle;rounded=0;orthogonalLoop=1;jettySize=auto;html=1;exitX=0.5;exitY=1;exitDx=0;exitDy=0;exitPerimeter=0;entryX=0.5;entryY=0;entryDx=0;entryDy=0;entryPerimeter=0;" parent="1" source="nVCKISFoR82PQB6_oY3b-139" target="nVCKISFoR82PQB6_oY3b-133" edge="1">
          <mxGeometry relative="1" as="geometry" />
        </mxCell>
        <mxCell id="nVCKISFoR82PQB6_oY3b-142" value="Daftar&lt;div&gt;user&lt;/div&gt;" style="verticalLabelPosition=middle;verticalAlign=middle;html=1;shape=mxgraph.flowchart.on-page_reference;align=center;labelPosition=center;" parent="1" vertex="1">
          <mxGeometry x="-1621.2299999999998" y="750.5" width="60" height="60" as="geometry" />
        </mxCell>
        <mxCell id="nVCKISFoR82PQB6_oY3b-143" style="edgeStyle=orthogonalEdgeStyle;rounded=0;orthogonalLoop=1;jettySize=auto;html=1;exitX=0;exitY=0.5;exitDx=0;exitDy=0;entryX=0.5;entryY=1;entryDx=0;entryDy=0;entryPerimeter=0;" parent="1" source="nVCKISFoR82PQB6_oY3b-137" target="nVCKISFoR82PQB6_oY3b-142" edge="1">
          <mxGeometry relative="1" as="geometry" />
        </mxCell>
        <mxCell id="nVCKISFoR82PQB6_oY3b-144" style="edgeStyle=orthogonalEdgeStyle;rounded=0;orthogonalLoop=1;jettySize=auto;html=1;exitX=0;exitY=0.5;exitDx=0;exitDy=0;entryX=0;entryY=0.5;entryDx=0;entryDy=0;entryPerimeter=0;" parent="1" source="nVCKISFoR82PQB6_oY3b-138" target="nVCKISFoR82PQB6_oY3b-142" edge="1">
          <mxGeometry relative="1" as="geometry">
            <Array as="points">
              <mxPoint x="-1685.9799999999998" y="975.5" />
              <mxPoint x="-1685.9799999999998" y="780.5" />
            </Array>
          </mxGeometry>
        </mxCell>
        <mxCell id="nVCKISFoR82PQB6_oY3b-147" value="Proses cek kode" style="rounded=1;whiteSpace=wrap;html=1;absoluteArcSize=1;arcSize=14;strokeWidth=2;" parent="1" vertex="1">
          <mxGeometry x="-1405.25" y="451" width="100" height="55" as="geometry" />
        </mxCell>
        <mxCell id="nVCKISFoR82PQB6_oY3b-156" style="edgeStyle=orthogonalEdgeStyle;rounded=0;orthogonalLoop=1;jettySize=auto;html=1;exitX=0.5;exitY=1;exitDx=0;exitDy=0;entryX=0.5;entryY=0;entryDx=0;entryDy=0;" parent="1" source="nVCKISFoR82PQB6_oY3b-153" target="nVCKISFoR82PQB6_oY3b-147" edge="1">
          <mxGeometry relative="1" as="geometry" />
        </mxCell>
        <mxCell id="nVCKISFoR82PQB6_oY3b-153" value="Input kode&lt;div&gt;booking&lt;/div&gt;" style="shape=parallelogram;html=1;strokeWidth=2;perimeter=parallelogramPerimeter;whiteSpace=wrap;rounded=1;arcSize=12;size=0.23;" parent="1" vertex="1">
          <mxGeometry x="-1405.25" y="357" width="100" height="60" as="geometry" />
        </mxCell>
        <mxCell id="nVCKISFoR82PQB6_oY3b-157" value="Kode masih&lt;div&gt;valid?&lt;/div&gt;" style="strokeWidth=2;html=1;shape=mxgraph.flowchart.decision;whiteSpace=wrap;" parent="1" vertex="1">
          <mxGeometry x="-1405.25" y="535.5" width="100" height="100" as="geometry" />
        </mxCell>
        <mxCell id="nVCKISFoR82PQB6_oY3b-158" value="&lt;div&gt;Kedaluarsa&lt;/div&gt;" style="strokeWidth=2;html=1;shape=mxgraph.flowchart.display;whiteSpace=wrap;" parent="1" vertex="1">
          <mxGeometry x="-1401.1299999999999" y="942.5" width="113.5" height="60" as="geometry" />
        </mxCell>
        <mxCell id="nVCKISFoR82PQB6_oY3b-159" value="Aktif" style="strokeWidth=2;html=1;shape=mxgraph.flowchart.display;whiteSpace=wrap;" parent="1" vertex="1">
          <mxGeometry x="-1412" y="671" width="113.5" height="60" as="geometry" />
        </mxCell>
        <mxCell id="nVCKISFoR82PQB6_oY3b-160" style="edgeStyle=orthogonalEdgeStyle;rounded=0;orthogonalLoop=1;jettySize=auto;html=1;exitX=1;exitY=0.5;exitDx=0;exitDy=0;exitPerimeter=0;entryX=1;entryY=0.5;entryDx=0;entryDy=0;entryPerimeter=0;" parent="1" source="nVCKISFoR82PQB6_oY3b-157" target="nVCKISFoR82PQB6_oY3b-158" edge="1">
          <mxGeometry relative="1" as="geometry">
            <Array as="points">
              <mxPoint x="-1257.1299999999999" y="585.5" />
              <mxPoint x="-1257.1299999999999" y="972.5" />
            </Array>
          </mxGeometry>
        </mxCell>
        <mxCell id="nVCKISFoR82PQB6_oY3b-162" value="Tidak" style="edgeLabel;html=1;align=center;verticalAlign=middle;resizable=0;points=[];" parent="nVCKISFoR82PQB6_oY3b-160" vertex="1" connectable="0">
          <mxGeometry x="-0.3716" y="-1" relative="1" as="geometry">
            <mxPoint x="6" y="-1" as="offset" />
          </mxGeometry>
        </mxCell>
        <mxCell id="nVCKISFoR82PQB6_oY3b-161" style="edgeStyle=orthogonalEdgeStyle;rounded=0;orthogonalLoop=1;jettySize=auto;html=1;exitX=0.5;exitY=1;exitDx=0;exitDy=0;exitPerimeter=0;entryX=0.5;entryY=0;entryDx=0;entryDy=0;entryPerimeter=0;" parent="1" source="nVCKISFoR82PQB6_oY3b-157" target="nVCKISFoR82PQB6_oY3b-159" edge="1">
          <mxGeometry relative="1" as="geometry" />
        </mxCell>
        <mxCell id="nVCKISFoR82PQB6_oY3b-163" value="Ya" style="edgeLabel;html=1;align=center;verticalAlign=middle;resizable=0;points=[];" parent="nVCKISFoR82PQB6_oY3b-161" vertex="1" connectable="0">
          <mxGeometry x="-0.3803" y="-1" relative="1" as="geometry">
            <mxPoint as="offset" />
          </mxGeometry>
        </mxCell>
        <mxCell id="nVCKISFoR82PQB6_oY3b-164" style="edgeStyle=orthogonalEdgeStyle;rounded=0;orthogonalLoop=1;jettySize=auto;html=1;exitX=0.5;exitY=1;exitDx=0;exitDy=0;entryX=0.5;entryY=0;entryDx=0;entryDy=0;entryPerimeter=0;" parent="1" source="nVCKISFoR82PQB6_oY3b-147" target="nVCKISFoR82PQB6_oY3b-157" edge="1">
          <mxGeometry relative="1" as="geometry" />
        </mxCell>
        <mxCell id="lZ6KA6rG7Rb4LMSSJKNj-8" style="edgeStyle=orthogonalEdgeStyle;rounded=0;orthogonalLoop=1;jettySize=auto;html=1;exitX=0.5;exitY=1;exitDx=0;exitDy=0;entryX=0.5;entryY=0;entryDx=0;entryDy=0;" parent="1" source="lZ6KA6rG7Rb4LMSSJKNj-5" target="lZ6KA6rG7Rb4LMSSJKNj-6" edge="1">
          <mxGeometry relative="1" as="geometry" />
        </mxCell>
        <mxCell id="lZ6KA6rG7Rb4LMSSJKNj-5" value="Pilih kamar" style="rounded=1;whiteSpace=wrap;html=1;absoluteArcSize=1;arcSize=14;strokeWidth=2;" parent="1" vertex="1">
          <mxGeometry x="-659.25" y="229" width="100" height="55" as="geometry" />
        </mxCell>
        <mxCell id="lZ6KA6rG7Rb4LMSSJKNj-9" style="edgeStyle=orthogonalEdgeStyle;rounded=0;orthogonalLoop=1;jettySize=auto;html=1;exitX=0.5;exitY=1;exitDx=0;exitDy=0;entryX=0.5;entryY=0;entryDx=0;entryDy=0;" parent="1" source="lZ6KA6rG7Rb4LMSSJKNj-6" target="c0lGMGclZq9IwRjVhmtw-82" edge="1">
          <mxGeometry relative="1" as="geometry" />
        </mxCell>
        <mxCell id="lZ6KA6rG7Rb4LMSSJKNj-6" value="Lihat detail&lt;div&gt;kamar&lt;/div&gt;" style="rounded=1;whiteSpace=wrap;html=1;absoluteArcSize=1;arcSize=14;strokeWidth=2;" parent="1" vertex="1">
          <mxGeometry x="-659.25" y="325" width="100" height="55" as="geometry" />
        </mxCell>
        <mxCell id="lZ6KA6rG7Rb4LMSSJKNj-10" style="edgeStyle=orthogonalEdgeStyle;rounded=0;orthogonalLoop=1;jettySize=auto;html=1;exitX=0;exitY=0.5;exitDx=0;exitDy=0;exitPerimeter=0;entryX=0.5;entryY=0;entryDx=0;entryDy=0;entryPerimeter=0;" parent="1" source="nVCKISFoR82PQB6_oY3b-22" target="nVCKISFoR82PQB6_oY3b-110" edge="1">
          <mxGeometry relative="1" as="geometry" />
        </mxCell>
        <mxCell id="lZ6KA6rG7Rb4LMSSJKNj-11" value="Daftar pesanan" style="edgeLabel;html=1;align=center;verticalAlign=middle;resizable=0;points=[];" parent="lZ6KA6rG7Rb4LMSSJKNj-10" vertex="1" connectable="0">
          <mxGeometry x="-0.6053" y="4" relative="1" as="geometry">
            <mxPoint x="-24" y="-4" as="offset" />
          </mxGeometry>
        </mxCell>
        <mxCell id="lZ6KA6rG7Rb4LMSSJKNj-12" style="edgeStyle=orthogonalEdgeStyle;rounded=0;orthogonalLoop=1;jettySize=auto;html=1;exitX=1;exitY=0.5;exitDx=0;exitDy=0;exitPerimeter=0;entryX=0.5;entryY=0;entryDx=0;entryDy=0;entryPerimeter=0;" parent="1" source="nVCKISFoR82PQB6_oY3b-22" target="nVCKISFoR82PQB6_oY3b-139" edge="1">
          <mxGeometry relative="1" as="geometry" />
        </mxCell>
        <mxCell id="lZ6KA6rG7Rb4LMSSJKNj-13" value="Daftar user" style="edgeLabel;html=1;align=center;verticalAlign=middle;resizable=0;points=[];" parent="lZ6KA6rG7Rb4LMSSJKNj-12" vertex="1" connectable="0">
          <mxGeometry x="-0.749" y="-1" relative="1" as="geometry">
            <mxPoint x="65" y="-1" as="offset" />
          </mxGeometry>
        </mxCell>
      </root>
    </mxGraphModel>
  </diagram>
</mxfile>
